<svg width="160" height="258" viewBox="0 0 160 258" fill="none" xmlns="http://www.w3.org/2000/svg">
    <path fill-rule="evenodd" clip-rule="evenodd" d="M26.1406 49.4333L138.5 203.927L159.641 188.552L29.5509 9.67866C20.2443 -3.11784 0 3.46518 0 19.2881V196.24H26.1406V49.4333Z" fill="#232422"/>
    <path fill-rule="evenodd" clip-rule="evenodd" d="M159.752 21.1498C43.4689 105.615 26.1407 176.349 26.1406 196.099L0 196.099C0.0001297 165.101 24.0614 87.4033 144.389 0L159.752 21.1498Z" fill="#2947FD"/>
    <path d="M18.559 250.127V246.327H30.359V250.127H18.559ZM14.279 256.927L21.999 229.727H24.479H25.719L24.479 233.927L18.439 256.927H14.279ZM26.959 229.727L34.679 256.927H30.559L24.479 233.927L23.239 229.727H24.479H26.959ZM58.0027 256.927H39.1627V253.127H58.0027V256.927ZM44.6827 255.487V236.927C45.3494 236.927 45.9361 236.927 46.4427 236.927C46.8694 236.927 47.2561 236.927 47.6027 236.927C47.9761 236.927 48.1627 236.927 48.1627 236.927L48.6827 242.767V255.487H44.6827ZM46.8427 240.727H39.1627V236.927H46.8427V240.727ZM54.3227 236.927H58.0027V240.927H53.8027C52.6561 240.927 51.7494 241.007 51.0827 241.167C50.4161 241.327 49.8961 241.661 49.5227 242.167C49.1761 242.647 48.9494 243.341 48.8427 244.247C48.7361 245.127 48.6827 246.287 48.6827 247.727L48.2027 245.167C48.2027 243.807 48.3094 242.621 48.5227 241.607C48.7361 240.567 49.0827 239.701 49.5627 239.007C50.0694 238.314 50.7094 237.794 51.4827 237.447C52.2561 237.101 53.2027 236.927 54.3227 236.927ZM62.1727 247.927V244.967H77.1727L79.1327 246.927L79.0927 247.927H62.1727ZM74.8127 250.247H78.7727C78.2394 252.487 77.1994 254.234 75.6527 255.487C74.1061 256.714 72.1461 257.327 69.7727 257.327C66.8661 257.327 64.5727 256.407 62.8927 254.567C61.2127 252.727 60.3727 250.181 60.3727 246.927C60.3727 243.701 61.2127 241.167 62.8927 239.327C64.5727 237.461 66.8661 236.527 69.7727 236.527C72.6794 236.527 74.9594 237.461 76.6127 239.327C78.2927 241.167 79.1327 243.701 79.1327 246.927H75.2527C75.2527 244.581 74.7861 242.807 73.8527 241.607C72.9461 240.407 71.5861 239.807 69.7727 239.807C67.9594 239.807 66.5861 240.421 65.6527 241.647C64.7461 242.847 64.2927 244.607 64.2927 246.927C64.2927 249.247 64.7594 251.007 65.6927 252.207C66.6261 253.407 67.9861 254.007 69.7727 254.007C71.1061 254.007 72.1861 253.701 73.0127 253.087C73.8661 252.474 74.4661 251.527 74.8127 250.247ZM84.7837 245.087C84.8903 242.314 85.5703 240.194 86.8237 238.727C88.077 237.261 89.9437 236.527 92.4237 236.527C93.757 236.527 94.917 236.767 95.9037 237.247C96.917 237.727 97.7437 238.407 98.3837 239.287C99.0503 240.141 99.5437 241.181 99.8637 242.407C100.21 243.607 100.384 244.941 100.384 246.407V256.927H96.3837V247.007C96.3837 245.834 96.277 244.794 96.0637 243.887C95.877 242.954 95.5703 242.181 95.1437 241.567C94.717 240.927 94.1703 240.447 93.5037 240.127C92.837 239.781 92.0503 239.607 91.1437 239.607C90.557 239.607 89.9303 239.714 89.2637 239.927C88.6237 240.114 88.0237 240.527 87.4637 241.167C86.9303 241.781 86.477 242.674 86.1037 243.847C85.757 245.021 85.5837 246.594 85.5837 248.567L84.7837 245.087ZM81.5837 256.927V236.927H85.5837V256.927H81.5837ZM116.236 244.607C116.236 243.274 115.876 242.261 115.156 241.567C114.462 240.874 113.422 240.527 112.036 240.527C111.449 240.527 110.889 240.607 110.356 240.767C109.849 240.901 109.396 241.127 108.996 241.447C108.596 241.741 108.276 242.101 108.036 242.527C107.796 242.927 107.676 243.407 107.676 243.967H103.676C103.676 243.087 103.862 242.207 104.236 241.327C104.609 240.447 105.156 239.647 105.876 238.927C106.596 238.207 107.476 237.634 108.516 237.207C109.582 236.754 110.796 236.527 112.156 236.527C113.569 236.527 114.782 236.741 115.796 237.167C116.809 237.567 117.636 238.154 118.276 238.927C118.942 239.701 119.436 240.621 119.756 241.687C120.076 242.754 120.236 243.927 120.236 245.207V253.327H121.516V256.927H119.956C119.129 256.927 118.476 256.834 117.996 256.647C117.516 256.461 117.142 256.167 116.876 255.767C116.609 255.367 116.436 254.861 116.356 254.247C116.276 253.634 116.236 252.874 116.236 251.967V244.607ZM118.556 244.447V247.647C118.556 247.647 118.329 247.661 117.876 247.687C117.449 247.714 116.916 247.754 116.276 247.807C115.636 247.834 114.956 247.874 114.236 247.927C113.516 247.981 112.862 248.034 112.276 248.087C111.476 248.141 110.729 248.234 110.036 248.367C109.369 248.474 108.782 248.661 108.276 248.927C107.796 249.167 107.422 249.487 107.156 249.887C106.889 250.261 106.756 250.727 106.756 251.287C106.756 252.247 107.062 252.927 107.676 253.327C108.316 253.727 109.209 253.927 110.356 253.927C111.502 253.927 112.449 253.754 113.196 253.407C113.969 253.061 114.569 252.607 114.996 252.047C115.449 251.487 115.769 250.861 115.956 250.167C116.142 249.474 116.236 248.781 116.236 248.087C116.529 248.061 116.769 248.047 116.956 248.047C117.142 248.047 117.316 248.047 117.476 248.047C117.636 248.047 117.716 248.047 117.716 248.047C117.716 249.274 117.542 250.447 117.196 251.567C116.876 252.687 116.356 253.674 115.636 254.527C114.916 255.381 113.982 256.061 112.836 256.567C111.716 257.074 110.342 257.327 108.716 257.327C106.742 257.327 105.249 256.794 104.236 255.727C103.249 254.661 102.756 253.221 102.756 251.407C102.756 250.234 102.996 249.247 103.476 248.447C103.982 247.647 104.662 246.994 105.516 246.487C106.396 245.981 107.409 245.607 108.556 245.367C109.702 245.101 110.916 244.941 112.196 244.887C112.862 244.834 113.556 244.781 114.276 244.727C115.022 244.674 115.716 244.634 116.356 244.607C117.102 244.554 117.836 244.501 118.556 244.447ZM124.748 229.727H129.388L134.948 239.887L140.508 229.727H145.148L137.628 243.327L145.148 256.927H140.508L134.948 246.807L129.388 256.927H124.748L132.268 243.327L124.748 229.727Z" fill="#2947FD"/>
</svg>
